<?xml version="1.0" encoding="UTF-8" standalone="no"?>
<svg
   width="2249.0383mm"
   height="3274.9268mm"
   viewBox="0 0 8500.3023 12377.676"
   version="1.1"
   xml:space="preserve"
   style="clip-rule:evenodd;fill-rule:evenodd;stroke-linecap:round;stroke-linejoin:round;stroke-miterlimit:1.5"
   id="svg1001"
   sodipodi:docname="pruebita2.svg"
   inkscape:version="1.2.2 (732a01da63, 2022-12-09)"
   inkscape:export-filename="Pruebita_22.svg"
   inkscape:export-xdpi="2540"
   inkscape:export-ydpi="2540"
   xmlns:inkscape="http://www.inkscape.org/namespaces/inkscape"
   xmlns:sodipodi="http://sodipodi.sourceforge.net/DTD/sodipodi-0.dtd"
   xmlns="http://www.w3.org/2000/svg"
   xmlns:svg="http://www.w3.org/2000/svg"><defs
   id="defs1005" /><sodipodi:namedview
   id="namedview1003"
   pagecolor="#505050"
   bordercolor="#eeeeee"
   borderopacity="1"
   inkscape:showpageshadow="0"
   inkscape:pageopacity="0"
   inkscape:pagecheckerboard="0"
   inkscape:deskcolor="#505050"
   showgrid="false"
   inkscape:zoom="0.044194174"
   inkscape:cx="5475.8349"
   inkscape:cy="6403.559"
   inkscape:window-width="1920"
   inkscape:window-height="1027"
   inkscape:window-x="1912"
   inkscape:window-y="-8"
   inkscape:window-maximized="1"
   inkscape:current-layer="svg1001"
   inkscape:document-units="mm" />
    
    
    
    
    
<path
   id="path8764"
   style="fill:#c2c200;stroke:#c2c200;stroke-width:0mm;stroke-linecap:round;stroke-linejoin:miter;stroke-opacity:1"
   d="M 4557.4969,2.4770473e-4 4485.305,0.56910083 l -67.9025,2.11930827 -67.5927,3.5139242 -67.3342,4.9609277 -66.7659,6.511383 -66.404,8.009715 -65.8358,9.508576 -65.0604,11.006909 -64.337,12.505771 -63.4586,14.004368 -62.6318,15.451106 -61.4946,17.104751 -60.4098,18.50016 -59.2726,20.10221 -11.834,4.23756 -54.9835,18.75839 -53.2783,19.8953 -51.8315,20.92903 -50.1776,21.70399 -48.6274,22.58267 -47.0772,23.30607 -45.5268,24.02941 -44.08,24.598 -42.5811,24.95968 -41.1345,25.52801 -39.7908,25.7865 -38.2921,26.0966 -36.8971,26.30323 -35.6049,26.40643 -34.2098,26.3035 -32.8659,26.40642 -31.6261,26.20004 -30.2823,25.99315 -29.0938,25.57986 -27.8018,25.32137 -26.6134,24.90783 -25.4248,24.2879 -24.2876,23.71959 -23.0994,22.99595 -22.0141,22.16913 -20.774,21.3939 -19.7921,20.51548 -18.7068,19.37858 -10.1285,10.54203 -28.4736,-3.20383 -30.2823,-3.10065 -32.1944,-3.10064 -33.8481,-2.89374 -35.2948,-2.84215 -36.7937,-2.58498 -38.1885,-2.27276 -39.3776,-2.11931 -40.5143,-1.80975 -41.5993,-1.49754 -42.4263,-1.08479 -43.3048,-0.72495 -43.8732,-0.21167 -44.4933,0.30956 -45.01,0.8255 -45.4236,1.39435 -45.5783,1.91294 -45.6821,2.6871 -14.6243,0.87841 -57.1023,5.89094 -56.3788,7.1313 -55.604,8.26821 -54.7252,9.50858 -53.795,10.59363 -52.865,11.834 -51.9347,12.86719 -50.9012,14.10782 -49.764,15.19261 -48.7309,16.32978 -47.3873,17.36325 -46.302,18.44856 -45.01,19.58522 -43.5631,20.56734 -42.3229,21.70396 -40.8243,22.7374 -39.3774,23.7712 -37.8787,24.8046 -36.32858,25.6831 -34.6749,26.8202 -33.12444,27.8019 -28.00847,25.5796 -30.28256,34.2097 -28.31857,34.9334 -26.40642,35.3983 -24.598,36.1732 -22.58267,36.7937 -20.77372,37.4136 -18.9137,38.0854 -17.00156,38.809 -15.08942,39.3773 -13.22914,40.101 -11.26541,40.7208 -9.40512,41.2895 -7.49299,42.116 -5.73615,42.5815 -3.66897,43.408 -1.91294,44.0284 v 44.5965 l 1.91294,45.2685 3.10064,38.6021 H 251.61844 l -22.42736,0.7223 -21.91089,1.9632 -21.29072,3.2039 -20.51548,4.4441 -19.68867,5.5812 -18.81025,6.7177 -17.77652,7.5965 -16.794931,8.6817 -15.606152,9.6118 -14.521098,10.387 -13.074095,11.317 -11.782137,11.989 -10.335398,12.7124 -8.681491,13.2807 -7.183158,14.0044 -5.5292516,14.4177 -3.6689697,14.9859 -1.8097464,15.2964 -0.21166621889,7.0797 0.67204029889,5.9944 1.03451882,5.9427 v 0.1059 H 4.5607636e-4 v 777.7803 H 499.96884 v 170.0151 H 0.00654148 v 528.7523 1476.5993 617.1188 834.4176 H 499.97492 v 149.9648 h 596.13818 a 146.99771,146.99771 0 0 1 127.227,145.0038 146.99771,146.99771 0 0 1 -130.8444,146.0373 h -92.50055 l -44.59676,0.9816 -43.97657,2.7903 -43.51144,4.8058 -42.89125,6.5114 -42.32293,8.3714 -41.59956,10.1288 -40.87593,11.7821 -40.10069,13.3842 -39.42919,15.1413 -38.49892,16.6912 -37.62023,18.1901 -36.79368,19.6889 -35.75995,21.1873 -34.82995,22.634 -33.79622,23.978 -32.71116,25.4246 -31.67744,26.6649 -30.38575,27.9053 -29.30043,29.1972 -28.11194,30.3339 -26.81996,31.4711 -25.47641,32.6077 -24.13287,33.6928 -22.78931,34.7265 -21.39416,35.7602 -19.79185,36.6383 -18.396981,37.569 -16.794658,38.3954 -15.296326,39.3258 -13.590825,40.1007 -12.040634,40.7727 -10.28354,41.5477 -8.474851,42.1679 -6.7180224,42.788 -5.0125211,43.5115 -2.997194,44.0281 -1.18797685,44.4933 v 4.5993 1500.0088 l 0.98160217,44.5965 2.79055488,43.9766 4.805882,43.5117 6.5111183,42.8912 8.423258,42.3229 10.076901,41.5993 11.782136,40.8762 13.43578,40.1007 15.089686,39.3774 16.691206,38.4989 18.190075,37.6202 19.68893,36.7937 21.23885,35.8115 22.58268,34.778 23.97781,33.796 25.42456,32.712 26.71677,31.729 27.9053,30.386 29.19698,29.3 30.28229,28.112 31.52266,26.768 32.55612,25.528 33.74463,24.082 34.6749,22.789 35.70809,21.394 36.69023,19.844 37.6205,18.396 38.39546,16.795 39.27414,15.296 40.1007,13.591 40.82433,11.989 41.49611,10.335 42.16789,8.475 42.83966,6.718 43.45984,4.961 44.02816,2.997 44.49331,1.241 h 4.59924 908.41809 a 146.99771,146.99771 0 0 1 122.9382,144.952 146.99771,146.99771 0 0 1 -136.5806,145.934 h -497.6948 l -43.7699,0.722 -42.4261,1.964 -40.7728,3.307 -39.5324,4.393 -38.0853,5.735 -36.6903,6.77 -35.3982,7.907 -34.1063,8.888 -32.9178,10.025 -31.5743,11.111 -30.48925,11.988 -29.30042,12.971 -28.21511,13.901 -27.07847,14.831 -26.045,15.658 -25.06287,16.433 -24.02967,17.312 -23.09914,18.087 -22.16913,18.81 -21.23912,19.379 -20.46363,20.205 -19.63707,20.774 -18.75865,21.445 -18.13821,21.859 -17.26006,22.531 -16.74307,22.996 -15.86465,23.513 -15.39951,23.978 -14.83119,24.288 -14.15915,24.804 -13.74613,25.115 -13.17728,25.373 -12.81586,25.735 -12.29887,25.89 -11.98904,26.2 -11.47205,26.406 -11.317,26.51 -10.90372,26.665 -10.69708,26.82 -10.49018,26.82 -10.3354,26.769 -10.0769,26.923 -10.02531,26.768 -9.86999,26.82 -9.92186,26.717 -9.76681,26.458 -9.81867,26.407 -9.8184,26.2 -9.97345,25.993 -10.02531,25.838 -10.18035,25.373 -10.28354,25.218 -10.59363,24.805 -10.74867,24.391 -11.05877,23.978 -11.42045,23.513 -11.5755,23.099 -12.14382,22.583 -12.45392,22.014 -12.91932,21.497 -13.28074,20.929 -13.90091,20.205 -14.41765,19.586 -14.98623,18.81 -15.60615,18.19 -16.22634,17.415 -16.79492,16.588 -17.56989,15.71 -18.34511,14.986 -19.06848,14.004 -19.895578,13.074 -20.722125,12.196 -21.600804,11.11 -22.375768,10.232 -17.10474894,6.77 v 170.015 H 499.97519 v -170.015 l 17.10501,-5.891 19.01689,-5.323 20.72213,-4.806 22.27258,-4.289 24.02941,-3.773 25.47641,-3.513 26.92342,-2.894 28.16351,-2.583 29.50734,-2.325 30.69557,-1.81 31.83275,-1.604 32.76276,-1.188 33.79622,-0.981 34.51985,-0.826 35.39827,-0.465 36.12164,-0.31 36.58704,-0.106 h 37.20701 l 37.5686,0.212 38.0338,0.212 38.292,0.362 38.3958,0.413 38.6021,0.413 38.6021,0.465 38.6023,0.413 38.3955,0.413 38.1888,0.309 30.2823,0.212 h 5706.1001 l 38.0338,-0.31 38.2923,-0.309 38.3954,-0.413 38.6024,-0.362 38.6021,-0.516 38.6021,-0.413 38.3957,-0.413 38.1888,-0.264 37.8788,-0.31 37.6202,-0.106 h 37.0003 l 36.5868,0.212 35.915,0.264 35.1916,0.62 34.4164,0.722 33.5896,1.085 32.608,1.291 31.5742,1.603 30.4374,2.016 29.3004,2.273 27.9569,2.635 26.6133,3.101 25.2179,3.462 23.5646,3.928 22.1175,4.392 20.3086,5.013 18.6036,5.374 13.4874,4.703 v 170.015 h 500.0202 v -170.015 l -23.2026,-9.406 -22.221,-10.387 -21.2904,-11.523 -20.5155,-12.403 -19.6887,-13.384 -18.8102,-14.211 -18.0869,-15.193 -17.4149,-15.968 -16.6914,-16.794 -16.0197,-17.622 -15.4511,-18.294 -14.8312,-19.12 -14.211,-19.688 -13.7975,-20.413 -13.1775,-21.083 -12.8156,-21.601 -12.2992,-22.221 -11.9887,-22.686 -11.6274,-23.203 -11.2654,-23.719 -10.9037,-24.081 -10.8003,-24.495 -10.4902,-24.908 -10.2319,-25.166 -10.1804,-25.632 -10.025,-25.786 -9.8703,-25.993 -9.8186,-26.304 -9.7669,-26.406 -9.9218,-26.614 -9.8184,-26.665 -9.8703,-26.819 -10.1285,-26.82 -10.0769,-26.872 -10.387,-26.924 -10.5417,-26.768 -10.8006,-26.717 -10.9553,-26.613 -11.317,-26.51 -11.6789,-26.406 -12.0407,-26.097 -12.5055,-25.89 -12.7642,-25.58 -13.4358,-25.321 -13.7975,-25.011 -14.366,-24.65 -14.9344,-24.236 -15.503,-23.875 -16.1747,-23.306 -16.7949,-22.892 -17.6215,-22.428 -18.1901,-21.807 -19.1203,-21.187 -19.7921,-20.619 -20.5671,-19.999 -21.4974,-19.275 -22.5308,-18.604 -23.306,-17.777 -24.2879,-17.104 -25.2698,-16.33 -26.3032,-15.4 -27.4402,-14.572 -28.4736,-13.591 -29.6105,-12.816 -30.799,-11.731 -31.9878,-10.8 -33.2279,-9.767 -34.3646,-8.733 -35.8118,-7.596 -37.1035,-6.357 -38.3957,-5.426 -39.7906,-4.082 -41.3411,-2.894 -42.6846,-1.704 -32.2979,-0.413 h -452.8395 a 146.99771,146.99771 0 0 1 -145.1589,-146.864 146.99771,146.99771 0 0 1 120.0441,-144.022 h 875.087 l 44.5968,-1.034 43.9765,-2.791 43.5115,-4.806 42.8912,-6.511 42.3229,-8.371 41.5996,-10.129 40.8759,-11.782 40.1007,-13.384 39.3774,-15.09 38.4989,-16.743 37.6205,-18.19 36.7934,-19.689 35.8118,-21.187 34.7781,-22.634 33.7962,-23.978 32.7112,-25.373 31.7293,-26.717 30.3857,-27.905 29.3004,-29.197 28.112,-30.282 26.7683,-31.523 25.528,-32.608 24.0813,-33.693 22.7893,-34.675 21.3939,-35.8109 19.8437,-36.587 18.3967,-37.6203 16.795,-38.3954 15.296,-39.3257 13.5911,-40.101 11.9888,-40.7725 10.3354,-41.4961 8.4748,-42.2197 6.7178,-42.7878 4.9609,-43.5115 2.9975,-43.9765 1.2409,-44.4933 v -4.5993 -1500.0088 l -1.0345,-44.5967 -2.7906,-44.0282 -4.8059,-43.5115 -6.5111,-42.8915 -8.3717,-42.271 -10.1285,-41.5996 -11.7824,-40.9275 -13.3841,-40.101 -15.0895,-39.3773 -16.743,-38.4989 -18.1901,-37.6203 -19.6887,-36.7936 -21.1872,-35.8116 -22.6343,-34.7783 -23.9778,-33.7963 -25.373,-32.7111 -26.7167,-31.6775 -27.9053,-30.4373 -29.197,-29.3007 -30.2823,-28.0601 -31.5227,-26.8199 -32.6077,-25.4767 -33.693,-24.1326 -34.6749,-22.7893 -35.8115,-21.3942 -36.5871,-19.7918 -37.6202,-18.397 -38.3955,-16.7947 -39.3257,-15.3479 -40.101,-13.5908 -40.7725,-11.989 -41.4961,-10.2836 -42.2194,-8.5264 -42.7881,-6.6665 -43.5114,-5.0125 -43.9766,-2.9972 -44.4933,-1.1879 h -4.5993 -136.7872 a 146.99771,146.99771 0 0 1 -138.1826,-146.0373 146.99771,146.99771 0 0 1 129.3458,-145.0038 h 645.5924 v -149.9648 h 500.0202 V 5702.0776 5084.9589 3608.3596 3079.6073 h -500.0202 v -170.0151 h 500.0202 v -777.7803 h -4.4958 l 2.7906,-12.9194 1.6034,-13.2291 0.1058,-5.1676 -1.0345,-15.6061 -2.7906,-15.0897 -4.7024,-14.7277 -6.4079,-14.1592 -8.0616,-13.6427 -9.6118,-12.9706 -11.1103,-12.2991 -12.5058,-11.6271 -13.9009,-10.8003 -15.0895,-9.9735 -16.2781,-9.095 -17.3114,-8.1134 -18.397,-7.1829 -19.3267,-5.9944 -20.2057,-5.0128 -20.8771,-3.7205 -21.6009,-2.585 -22.2207,-1.2912 -10.1801,-0.1058 h -335.5862 l 4.2891,-25.6315 2.376,-25.5798 0.6191,-25.5796 -1.188,-25.6315 -2.8937,-25.4767 -4.4442,-25.6312 -5.9946,-25.5798 -7.2864,-25.5799 -8.6815,-25.6315 -9.9218,-25.5798 -11.1104,-25.6315 -12.0922,-25.5796 -13.1776,-25.5799 -14.0043,-25.528 -14.8828,-25.5798 -13.4358,-22.1176 -20.5671,-29.6105 -22.4276,-28.6802 -24.1845,-27.9053 -25.7865,-27.0785 -27.5436,-26.0966 -28.9903,-25.2179 -30.5924,-24.1844 -32.091,-23.0994 -33.4864,-22.2208 -34.9331,-20.9806 -36.1735,-19.8956 -37.517,-18.7068 -38.7056,-17.6214 -39.8941,-16.2782 -40.9793,-15.0379 -42.0129,-13.7974 -43.0979,-12.4023 -44.0284,-10.9554 -44.9584,-9.6117 -45.8369,-8.2166 -46.5602,-6.6146 -14.6246,-1.7568 -44.4933,-7.8031 -44.3898,-5.9428 -44.3383,-4.0825 -44.08,-2.376 -43.7699,-0.9313 -43.408,0.725 -42.8913,2.0663 -42.5298,3.3073 -41.9094,4.5993 -41.186,5.6327 -40.5142,6.6664 -39.6875,7.493 -38.809,8.3198 -7.1829,1.6034 -10.697,-45.4236 -12.1957,-44.1832 -13.5909,-42.9947 -15.141,-41.90936 -16.4848,-40.66929 -17.7768,-39.63582 -19.1201,-38.39547 -20.2054,-37.3104 -21.3941,-36.1735 -22.4792,-35.08818 -23.6162,-34.00286 -24.4945,-33.02125 -25.528,-31.7809 -26.3033,-30.90247 -27.1819,-29.81743 -27.905,-28.68024 -28.5771,-27.80183 -29.3004,-26.71678 -29.9206,-25.78651 -30.3857,-24.80463 -30.9025,-23.82278 -31.3158,-22.89249 -31.7809,-21.85904 -31.9878,-21.03222 -32.2976,-20.1022 -27.2335,-16.17474 v -12.04064 h -22.7893 l -46.4052,-25.16632 -46.5086,-23.51271 -46.4055,-22.01408 -46.1985,-20.20539 -45.7853,-18.39698 -12.9193,-4.80588 -60.4611,-22.8925 -61.7015,-21.49735 -62.9935,-19.8953 -63.9237,-18.39697 -65.0088,-17.001569 -65.8872,-15.502701 -66.7143,-14.004367 -67.3858,-12.402319 -68.0062,-10.955316 -68.4711,-9.405124 -69.0395,-8.009715 -69.2979,-6.407931 -69.6081,-4.9093341 -69.6596,-3.307285 -69.8147,-1.80974642 z M 1999.9838,6536.4874 h 4500.2846 v 149.9647 h 291.8679 a 146.99771,146.99771 0 0 1 127.1757,145.0038 146.99771,146.99771 0 0 1 -130.7928,146.0373 H 1667.0333 a 146.99771,146.99771 0 0 1 -137.6659,-146.0373 146.99771,146.99771 0 0 1 128.8291,-145.0038 h 341.7873 z m 467.309,3940.9916 h 3613.9323 a 146.99771,146.99771 0 0 1 117.9772,144.022 146.99771,146.99771 0 0 1 -142.5234,146.864 h -3583.03 a 146.99771,146.99771 0 0 1 -136.322,-145.934 146.99771,146.99771 0 0 1 129.9659,-144.952 z"
   inkscape:label="Edge.Cuts" /></svg>
