<?xml version="1.0" encoding="UTF-8" standalone="no"?>
<svg
   width="2249.0381mm"
   height="425.79211mm"
   viewBox="0 0 8500.3014 1609.293"
   version="1.1"
   xml:space="preserve"
   style="clip-rule:evenodd;fill-rule:evenodd;stroke-linecap:round;stroke-linejoin:round;stroke-miterlimit:1.5"
   id="svg1001"
   sodipodi:docname="ISCAS_Gingerbread_square - 3.svg"
   inkscape:version="1.2.2 (732a01da63, 2022-12-09)"
   inkscape:export-filename="ISCAS_Gingerbread_square - 33.svg"
   inkscape:export-xdpi="2540"
   inkscape:export-ydpi="2540"
   xmlns:inkscape="http://www.inkscape.org/namespaces/inkscape"
   xmlns:sodipodi="http://sodipodi.sourceforge.net/DTD/sodipodi-0.dtd"
   xmlns="http://www.w3.org/2000/svg"
   xmlns:svg="http://www.w3.org/2000/svg"><defs
   id="defs1005"><inkscape:path-effect
     effect="spiro"
     id="path-effect2308"
     is_visible="true"
     lpeversion="1" /><inkscape:path-effect
     effect="spiro"
     id="path-effect1318"
     is_visible="true"
     lpeversion="1" /></defs><sodipodi:namedview
   id="namedview1003"
   pagecolor="#505050"
   bordercolor="#eeeeee"
   borderopacity="1"
   inkscape:showpageshadow="0"
   inkscape:pageopacity="0"
   inkscape:pagecheckerboard="0"
   inkscape:deskcolor="#505050"
   showgrid="false"
   inkscape:zoom="0.0625"
   inkscape:cx="3424"
   inkscape:cy="5184"
   inkscape:window-width="1920"
   inkscape:window-height="1027"
   inkscape:window-x="1912"
   inkscape:window-y="-8"
   inkscape:window-maximized="1"
   inkscape:current-layer="svg1001"
   inkscape:document-units="mm" />
    
    
    
    
    <path
   id="rect1373"
   style="clip-rule:evenodd;fill:#26a269;fill-rule:evenodd;stroke-width:0;stroke-linecap:round;stroke-linejoin:round;stroke-miterlimit:1.5"
   d="M -5.1567346e-5,-3.2532753e-4 V 169.99967 C 588.48228,390.96777 287.06778,1607.1383 1397.0781,1609.2926 H 7103.2226 C 8213.2329,1607.1383 7911.8183,390.96777 8500.3008,169.99967 V -3.2532753e-4 h -500 V 169.99967 c -149.7683,56.8556 -546.7015,41.2498 -897.0782,39.2929 H 1397.0781 c -350.3767,1.9569 -747.30992,17.5627 -897.07812,-39.2929 V -3.2532753e-4 Z"
   inkscape:label="Edge.Cuts" /><g
   id="g3644"
   inkscape:label="B.Cu"
   style="clip-rule:evenodd;fill-rule:evenodd;stroke-linecap:round;stroke-linejoin:round;stroke-miterlimit:1.5"
   transform="translate(-728.54296,-7138.1058)"><path
     id="path3667"
     style="clip-rule:evenodd;fill:#f8e45c;fill-rule:evenodd;stroke-width:0;stroke-linecap:round;stroke-linejoin:round;stroke-miterlimit:1.5"
     d="m 728.54297,7138.1055 v 170 c 167.24119,62.797 261.91215,207.0507 338.23043,379.8945 h 200.2891 v -369.5195 c -13.1665,-3.3624 -27.7846,-6.2998 -38.5195,-10.375 v -170 z"
     transform="translate(3.684304e-6)"
     inkscape:label="SolderslotL" /><path
     id="path3669"
     style="clip-rule:evenodd;fill:#f8e45c;fill-rule:evenodd;stroke-width:0;stroke-linecap:round;stroke-linejoin:round;stroke-miterlimit:1.5"
     d="m 8728.8437,7138.1055 v 170 c -10.7349,4.0752 -25.353,7.0126 -38.5195,10.375 V 7688 h 200.2891 c 76.3183,-172.8438 170.9892,-317.0975 338.2304,-379.8945 v -170 z"
     transform="translate(3.684304e-6)"
     inkscape:label="SolderslotR" /></g><g
   id="g3640"
   inkscape:label="B.Mask"
   style="clip-rule:evenodd;fill-rule:evenodd;stroke-linecap:round;stroke-linejoin:round;stroke-miterlimit:1.5"
   transform="translate(-728.54296,-7138.1058)"><path
     id="path3673"
     style="clip-rule:evenodd;fill:#f8e45c;fill-rule:evenodd;stroke-width:0;stroke-linecap:round;stroke-linejoin:round;stroke-miterlimit:1.5"
     d="m 728.54297,7138.1055 v 170 c 167.24119,62.797 261.91215,207.0507 338.23043,379.8945 h 200.2891 v -369.5195 c -13.1665,-3.3624 -27.7846,-6.2998 -38.5195,-10.375 v -170 z"
     transform="translate(3.684304e-6)"
     inkscape:label="SolderslotL" /><path
     id="path3675"
     style="clip-rule:evenodd;fill:#f8e45c;fill-rule:evenodd;stroke-width:0;stroke-linecap:round;stroke-linejoin:round;stroke-miterlimit:1.5"
     d="m 8728.8437,7138.1055 v 170 c -10.7349,4.0752 -25.353,7.0126 -38.5195,10.375 V 7688 h 200.2891 c 76.3183,-172.8438 170.9892,-317.0975 338.2304,-379.8945 v -170 z"
     transform="translate(3.684304e-6)"
     inkscape:label="SolderslotR" /></g><g
   id="F.Cu"
   transform="translate(-737.33718,-9392.7398)">
        
    <path
   id="path3566"
   style="clip-rule:evenodd;fill:#f8e45c;fill-rule:evenodd;stroke-width:0;stroke-linecap:round;stroke-linejoin:round;stroke-miterlimit:1.5"
   d="m 728.54297,7138.1055 v 170 c 167.24119,62.797 261.91215,207.0507 338.23043,379.8945 h 200.2891 v -369.5195 c -13.1665,-3.3624 -27.7846,-6.2998 -38.5195,-10.375 v -170 z"
   transform="translate(8.7942221,2254.6341)"
   inkscape:label="SolderslotL" /><path
   id="path3569"
   style="clip-rule:evenodd;fill:#f8e45c;fill-rule:evenodd;stroke-width:0;stroke-linecap:round;stroke-linejoin:round;stroke-miterlimit:1.5"
   d="m 8728.8437,7138.1055 v 170 c -10.7349,4.0752 -25.353,7.0126 -38.5195,10.375 V 7688 h 200.2891 c 76.3183,-172.8438 170.9892,-317.0975 338.2304,-379.8945 v -170 z"
   transform="translate(8.7942221,2254.6341)"
   inkscape:label="SolderslotR" /></g><g
   id="F.Mask"
   transform="matrix(1.1440129,0,0,0.99985729,-1530.0412,-9416.2393)"
   style="fill:#cdab8f">
        
    <path
   id="path3579"
   style="clip-rule:evenodd;fill:#cdab8f;fill-rule:evenodd;stroke-width:0;stroke-linecap:round;stroke-linejoin:round;stroke-miterlimit:1.5"
   d="m 728.54297,7138.1055 v 170 c 167.24119,62.797 261.91215,207.0507 338.23043,379.8945 h 200.2891 v -369.5195 c -13.1665,-3.3624 -27.7846,-6.2998 -38.5195,-10.375 v -170 z"
   transform="matrix(0.87411602,0,0,1.0001427,700.60243,2278.4588)"
   inkscape:label="SolderslotL" /><path
   id="path3581"
   style="clip-rule:evenodd;fill:#cdab8f;fill-rule:evenodd;stroke-width:0;stroke-linecap:round;stroke-linejoin:round;stroke-miterlimit:1.5"
   d="m 8728.8437,7138.1055 v 170 c -10.7349,4.0752 -25.353,7.0126 -38.5195,10.375 V 7688 h 200.2891 c 76.3183,-172.8438 170.9892,-317.0975 338.2304,-379.8945 v -170 z"
   transform="matrix(0.87411602,0,0,1.0001427,700.60243,2278.4588)"
   inkscape:label="SolderslotR" /></g><g
   id="F.SilkS"
   transform="translate(-758.64384,-6449.988)"
   style="clip-rule:evenodd;fill-rule:evenodd;stroke-linecap:round;stroke-linejoin:round;stroke-miterlimit:1.5">
        
    <path
   style="clip-rule:evenodd;fill:none;fill-rule:evenodd;stroke:#ffffff;stroke-width:60.4724;stroke-linecap:round;stroke-linejoin:round;stroke-miterlimit:1.5;stroke-dasharray:120.945, 120.945;stroke-dashoffset:0;stroke-opacity:1"
   d="m 1419.8704,5102.7577 c 21.5643,174.3566 110.1265,339.5742 243.3896,454.0565 133.2631,114.4824 309.9431,177.1264 485.558,172.1605 195.2316,-5.5206 381.4083,-91.5567 537.2048,-209.3416 155.7966,-117.7849 285.0462,-266.505 411.9294,-414.9856 127.3339,-149.008 254.8264,-300.2032 410.119,-419.7922 155.2926,-119.5889 343.0132,-206.6941 539.015,-207.4595 196.7461,-0.7683 385.8564,85.5641 542.0416,205.2129 156.1852,119.6488 284.0563,271.6147 410.8721,422.0388 126.8177,150.4264 255.2896,301.9182 411.9774,420.913 156.6878,118.9948 346.0788,204.4564 542.8267,203.4142 195.4477,-1.0353 382.7377,-87.3157 537.9175,-206.1437 155.1798,-118.828 282.7031,-269.2962 409.3263,-418.1835 126.9368,-149.2561 255.5236,-299.3751 411.093,-418.4905 155.5693,-119.1155 342.1748,-206.4251 538.0412,-211.5897 174.7701,-4.6084 350.4591,58.7045 482.1137,173.7388 131.6546,115.0343 217.9619,280.6428 236.8385,454.4516"
   id="path1316"
   inkscape:path-effect="#path-effect1318"
   inkscape:original-d="m 1419.8704,5102.7577 c 242.9835,208.7401 485.966,417.479 728.9476,626.217 242.9815,208.7381 632.7571,-416.2172 949.1342,-624.3272 316.377,-208.1101 632.757,-418.1668 949.134,-627.2517 316.377,-209.0849 635.2768,418.1688 952.9137,627.2517 317.637,209.0829 636.5371,416.2191 954.8041,624.3272 318.267,208.1082 631.4969,-416.2172 947.2438,-624.3272 315.747,-208.1101 632.7572,-420.0524 949.1342,-630.0802 316.3771,-210.0276 479.3025,418.7947 718.9522,628.1904"
   inkscape:label="Line"
   transform="translate(8.7942184,2254.6341)" /><path
   style="clip-rule:evenodd;fill:none;fill-rule:evenodd;stroke:#ffffff;stroke-width:60.4724;stroke-linecap:round;stroke-linejoin:round;stroke-miterlimit:1.5;stroke-dasharray:120.945, 120.945;stroke-dashoffset:0;stroke-opacity:1"
   d="m 8555.1135,5102.7576 c -21.5643,174.3566 -110.1264,339.5743 -243.3895,454.0566 -133.2631,114.4824 -309.9432,177.1264 -485.5581,172.1605 -195.2316,-5.5206 -381.4083,-91.5567 -537.2049,-209.3417 -155.7965,-117.7849 -285.0461,-266.505 -411.9293,-414.9856 -127.3339,-149.008 -254.8264,-300.2033 -410.119,-419.7922 -155.2926,-119.5889 -343.0132,-206.6941 -539.015,-207.4595 -196.7461,-0.7683 -385.8564,85.5641 -542.0416,205.2129 -156.1852,119.6487 -284.0564,271.6147 -410.8721,422.0388 -126.8177,150.4264 -255.2896,301.9182 -411.9774,420.913 -156.6878,118.9948 -346.0788,204.4565 -542.8267,203.4143 -195.4477,-1.0353 -382.7377,-87.3157 -537.9175,-206.1438 -155.1798,-118.828 -282.7031,-269.2961 -409.3263,-418.1835 -126.9368,-149.2561 -255.5236,-299.375 -411.093,-418.4905 -155.5693,-119.1154 -342.1748,-206.425 -538.0412,-211.5896 -174.7701,-4.6084 -350.459,58.7045 -482.1137,173.7387 -131.6546,115.0343 -217.9618,280.6428 -236.8385,454.4516"
   id="path2304"
   inkscape:path-effect="#path-effect2308"
   inkscape:original-d="m 8555.1135,5102.7576 c -242.9835,208.7401 -485.966,417.4791 -728.9476,626.2171 -242.9815,208.7381 -632.7571,-416.2172 -949.1342,-624.3273 -316.377,-208.1101 -632.757,-418.1668 -949.134,-627.2517 -316.377,-209.0849 -635.2768,418.1688 -952.9137,627.2517 -317.637,209.0829 -636.5371,416.2192 -954.8041,624.3273 -318.267,208.1081 -631.4969,-416.2172 -947.2438,-624.3273 -315.747,-208.1101 -632.7572,-420.0524 -949.1342,-630.0801 -316.3771,-210.0277 -479.3025,418.7946 -718.9522,628.1903"
   inkscape:label="Line"
   transform="translate(8.7942184,2254.6341)" /></g><g
   id="Drills"
   transform="translate(-407.25375,-7138.1058)">
        
    <circle
   style="clip-rule:evenodd;opacity:1;fill:#000000;fill-rule:evenodd;stroke-width:0;stroke-linecap:round;stroke-linejoin:round;stroke-miterlimit:1.5"
   id="path671"
   cx="2196.9282"
   cy="5000"
   r="550"
   transform="translate(-392.59587,3047.3993)"
   inkscape:label="D1" /><circle
   style="clip-rule:evenodd;opacity:1;fill:#000000;fill-rule:evenodd;stroke-width:0;stroke-linecap:round;stroke-linejoin:round;stroke-miterlimit:1.5"
   id="path671-1"
   cx="4098.9761"
   cy="5000"
   r="550"
   transform="translate(-392.59587,3047.3993)"
   inkscape:label="D2" /><circle
   style="clip-rule:evenodd;opacity:1;fill:#000000;fill-rule:evenodd;stroke-width:0;stroke-linecap:round;stroke-linejoin:round;stroke-miterlimit:1.5"
   id="path671-1-6"
   cx="6001.0239"
   cy="5000"
   r="550"
   transform="translate(-392.59587,3047.3993)"
   inkscape:label="D3" /><circle
   style="clip-rule:evenodd;opacity:1;fill:#000000;fill-rule:evenodd;stroke-width:0;stroke-linecap:round;stroke-linejoin:round;stroke-miterlimit:1.5"
   id="path671-1-3"
   cx="7903.0718"
   cy="5000"
   r="550"
   transform="translate(-392.59587,3047.3993)"
   inkscape:label="D4" /></g>
</svg>
