<?xml version="1.0" encoding="UTF-8" standalone="no"?>
<svg
   width="2249.0381mm"
   height="926.04169mm"
   viewBox="0 0 8500.3014 3500.0001"
   version="1.1"
   xml:space="preserve"
   style="clip-rule:evenodd;fill-rule:evenodd;stroke-linecap:round;stroke-linejoin:round;stroke-miterlimit:1.5"
   id="svg1001"
   sodipodi:docname="ISCAS_Gingerbread_square - 2.svg"
   inkscape:version="1.2.2 (732a01da63, 2022-12-09)"
   xmlns:inkscape="http://www.inkscape.org/namespaces/inkscape"
   xmlns:sodipodi="http://sodipodi.sourceforge.net/DTD/sodipodi-0.dtd"
   xmlns="http://www.w3.org/2000/svg"
   xmlns:svg="http://www.w3.org/2000/svg"><defs
   id="defs1005" /><sodipodi:namedview
   id="namedview1003"
   pagecolor="#505050"
   bordercolor="#eeeeee"
   borderopacity="1"
   inkscape:showpageshadow="0"
   inkscape:pageopacity="0"
   inkscape:pagecheckerboard="0"
   inkscape:deskcolor="#505050"
   showgrid="false"
   inkscape:zoom="0.044194174"
   inkscape:cx="5521.0897"
   inkscape:cy="5634.2268"
   inkscape:window-width="1920"
   inkscape:window-height="1027"
   inkscape:window-x="1912"
   inkscape:window-y="-8"
   inkscape:window-maximized="1"
   inkscape:current-layer="svg1001"
   inkscape:document-units="mm" />
    <path
   id="rect5231"
   style="clip-rule:evenodd;fill:#26a269;fill-rule:evenodd;stroke-width:0;stroke-linecap:round;stroke-linejoin:round;stroke-miterlimit:1.5"
   d="M 999.99998,-3.1738284e-4 C 446.00098,-3.1738284e-4 -6.1567346e-5,446.00068 -6.1567346e-5,999.99968 V 2499.9997 c 0,553.998 446.001041567346,1000 1000.000041567346,1000 H 7500.3008 c 553.9988,0 1000,-446.002 1000,-1000 V 999.99968 c 0,-553.999 -446.0012,-999.99999738284 -1000,-999.99999738284 z M 528.12498,2160.4567 H 1971.875 c 57.1312,0 103.125,37.91 103.125,85 0,47.09 -45.9938,85 -103.125,85 H 528.12498 c -57.1312,0 -103.125,-37.91 -103.125,-85 0,-47.09 45.9938,-85 103.125,-85 z m 6000.30082,0 h 1443.75 c 57.131,0 103.125,37.91 103.125,85 0,47.09 -45.994,85 -103.125,85 h -1443.75 c -57.1312,0 -103.125,-37.91 -103.125,-85 0,-47.09 45.9938,-85 103.125,-85 z"
   inkscape:label="Edge.Cuts" /><g
   id="g3644"
   inkscape:label="B.Cu"
   style="clip-rule:evenodd;fill-rule:evenodd;stroke-linecap:round;stroke-linejoin:round;stroke-miterlimit:1.5"
   transform="translate(-728.54303,-9108.6683)"><g
     id="g5446"
     inkscape:label="CuB"
     style="clip-rule:evenodd;fill-rule:evenodd;stroke-linecap:round;stroke-linejoin:round;stroke-miterlimit:1.5"><path
       id="path5424"
       style="clip-rule:evenodd;opacity:1;fill:#f8e45c;fill-rule:evenodd;stroke-width:0;stroke-linecap:round;stroke-linejoin:round;stroke-miterlimit:1.5"
       d="m 1457.4805,10786.652 c -276.9998,0 -500.00003,223.001 -500.00003,500 v 131.369 c 0,277 223.00023,500 500.00003,500 h 1042.125 c 276.9997,0 500,-223 500,-500 v -131.369 c 0,-276.999 -223.0003,-500 -500,-500 z m -200.8125,482.473 h 1443.75 c 57.1311,0 103.125,37.91 103.125,85 0,47.09 -45.9939,85 -103.125,85 h -1443.75 c -57.1312,0 -103.125,-37.91 -103.125,-85 0,-47.09 45.9938,-85 103.125,-85 z"
       inkscape:label="CuBL" /><path
       id="path5422"
       style="clip-rule:evenodd;display:inline;opacity:1;fill:#f9f06b;fill-rule:evenodd;stroke-width:0;stroke-linecap:round;stroke-linejoin:round;stroke-miterlimit:1.5"
       d="m 7457.7812,10786.652 c -276.9997,0 -500,223.001 -500,500 v 131.369 c 0,277 223.0003,500 500,500 h 1042.125 c 276.9998,0 500,-223 500,-500 v -131.369 c 0,-276.999 -223.0002,-500 -500,-500 z m -200.8124,482.473 h 1443.75 c 57.1309,0 103.125,37.91 103.125,85 0,47.09 -45.9941,85 -103.125,85 h -1443.75 c -57.1312,0 -103.125,-37.91 -103.125,-85 0,-47.09 45.9938,-85 103.125,-85 z"
       inkscape:label="CuBR" /></g></g><g
   id="g3640"
   inkscape:label="B.Mask"
   style="clip-rule:evenodd;fill-rule:evenodd;stroke-linecap:round;stroke-linejoin:round;stroke-miterlimit:1.5"
   transform="translate(-728.54303,-9108.6683)"><g
     id="g5442"
     inkscape:label="SolderslotBB"
     style="clip-rule:evenodd;fill:#cdab8f;fill-rule:evenodd;stroke-linecap:round;stroke-linejoin:round;stroke-miterlimit:1.5"
     transform="matrix(1.1440129,0,0,0.99985729,-801.49821,-2278.1336)"><rect
       style="clip-rule:evenodd;fill:#cdab8f;fill-rule:evenodd;stroke-width:0;stroke-linecap:round;stroke-linejoin:round;stroke-miterlimit:1.5"
       id="rect3655-5"
       width="843.70776"
       height="300"
       x="1556.6891"
       y="10969.125"
       inkscape:label="SolderslotBUL"
       transform="matrix(0.87411602,0,0,1.0001427,700.60242,2278.4588)" /><rect
       style="clip-rule:evenodd;fill:#cdab8f;fill-rule:evenodd;stroke-width:0;stroke-linecap:round;stroke-linejoin:round;stroke-miterlimit:1.5"
       id="rect5327"
       width="843.70776"
       height="300"
       x="1556.6891"
       y="11439.125"
       inkscape:label="SolderslotBBL"
       transform="matrix(0.87411602,0,0,1.0001427,700.60242,2278.4588)" /><rect
       style="clip-rule:evenodd;fill:#cdab8f;fill-rule:evenodd;stroke-width:0;stroke-linecap:round;stroke-linejoin:round;stroke-miterlimit:1.5"
       id="rect3655-5-7"
       width="843.70776"
       height="300"
       x="7556.9897"
       y="10969.125"
       inkscape:label="SolderslotBUR"
       transform="matrix(0.87411602,0,0,1.0001427,700.60242,2278.4588)" /><rect
       style="clip-rule:evenodd;fill:#cdab8f;fill-rule:evenodd;stroke-width:0;stroke-linecap:round;stroke-linejoin:round;stroke-miterlimit:1.5"
       id="rect5327-6"
       width="843.70776"
       height="300"
       x="7556.9897"
       y="11439.125"
       inkscape:label="SolderslotBBR"
       transform="matrix(0.87411602,0,0,1.0001427,700.60242,2278.4588)" /></g></g>
    
    
    
    
</svg>
